HIERARCHY
ROOT Hips
{
	OFFSET 0.000000 0.000000 0.000000
	CHANNELS 6 Xposition Yposition Zposition Zrotation Yrotation Xrotation 
	JOINT LowerBack
	{
		OFFSET 0.000000 0.000000 0.000000
		CHANNELS 3 Zrotation Yrotation Xrotation
		JOINT Spine
		{
			OFFSET 0.028270 2.035590 -0.193380
			CHANNELS 3 Zrotation Yrotation Xrotation
			JOINT Spine1
			{
				OFFSET 0.056720 2.048850 -0.042750
				CHANNELS 3 Zrotation Yrotation Xrotation
				JOINT Neck
				{
					OFFSET 0.000000 0.000000 0.000000
					CHANNELS 3 Zrotation Yrotation Xrotation
					JOINT Neck1
					{
						OFFSET -0.054170 1.746240 0.172020
						CHANNELS 3 Zrotation Yrotation Xrotation
						JOINT Head
						{
							OFFSET 0.104070 1.761360 -0.123970
							CHANNELS 3 Zrotation Yrotation Xrotation
							End Site
							{
								OFFSET 0.000000 0.000000 0.000000
							}
						}
					}
				}
				JOINT LeftShoulder
				{
					OFFSET 0.000000 0.000000 0.000000
					CHANNELS 3 Zrotation Yrotation Xrotation
					JOINT LeftArm
					{
						OFFSET 3.362410 1.200890 -0.311210
						CHANNELS 3 Zrotation Yrotation Xrotation
						JOINT LeftForeArm
						{
							OFFSET 4.983000 -0.000000 -0.000000
							CHANNELS 3 Zrotation Yrotation Xrotation
							JOINT LeftHand
							{
								OFFSET 3.483560 -0.000000 -0.000000
								CHANNELS 3 Zrotation Yrotation Xrotation
								JOINT LeftFingerBase
								{
									OFFSET 0.000000 0.000000 0.000000
									CHANNELS 3 Zrotation Yrotation Xrotation
									JOINT LeftHandIndex1
									{
										OFFSET 0.715260 -0.000000 -0.000000
										CHANNELS 3 Zrotation Yrotation Xrotation
										End Site
										{
											OFFSET 0.000000 0.000000 0.000000
										}
									}
								}
								JOINT LThumb
								{
									OFFSET 0.000000 0.000000 0.000000
									CHANNELS 3 Zrotation Yrotation Xrotation
									End Site
									{
										OFFSET 0.000000 0.000000 0.000000
									}
								}
							}
						}
					}
				}
				JOINT RightShoulder
				{
					OFFSET 0.000000 0.000000 0.000000
					CHANNELS 3 Zrotation Yrotation Xrotation
					JOINT RightArm
					{
						OFFSET -3.136600 1.374050 -0.404650
						CHANNELS 3 Zrotation Yrotation Xrotation
						JOINT RightForeArm
						{
							OFFSET -5.241900 -0.000000 -0.000000
							CHANNELS 3 Zrotation Yrotation Xrotation
							JOINT RightHand
							{
								OFFSET -3.444170 -0.000000 -0.000000
								CHANNELS 3 Zrotation Yrotation Xrotation
								JOINT RightFingerBase
								{
									OFFSET 0.000000 0.000000 0.000000
									CHANNELS 3 Zrotation Yrotation Xrotation
									JOINT RightHandIndex1
									{
										OFFSET -0.622530 -0.000000 -0.000000
										CHANNELS 3 Zrotation Yrotation Xrotation
										End Site
										{
											OFFSET 0.000000 0.000000 0.000000
										}
									}
								}
								JOINT RThumb
								{
									OFFSET 0.000000 0.000000 0.000000
									CHANNELS 3 Zrotation Yrotation Xrotation
									End Site
									{
										OFFSET 0.000000 0.000000 0.000000
									}
								}
							}
						}
					}
				}
			}
		}
	}
}
}
MOTION
Frames: 8
Frame Time: 0.008333
-4.672418 16.127244 0.238724 -11.015599 77.787914 16.943417 -8.458872 1.282626 4.088166 -3.028522 1.566303 -2.532762 -7.577723 1.418950 -0.450894 8.266373 7.394340 3.712804 -4.710982 -0.427116 2.561312 0.000000 0.000000 0.000000 -7.558389 -0.682277 3.042855 -57.716190 -2.010965 4.273681 -4.098442 -5.722811 -0.006160 0.961200 4.190925 0.037711 -0.077722 0.041874 0.000000 0.000000 0.000000 0.000000 0.000000 0.000000 0.000000 19.287722 8.119175 -1.041846 80.968470 31.231998 32.526158 1.841247 36.977232 0.006608 3.187186 12.205090 0.351940 -0.034948 -0.245529 0.000000 0.000000 0.000000 0.000000 0.000000 0.000000 0.000000 
-4.529902 16.115709 0.234421 -9.507623 77.952439 18.581984 -8.951204 1.197023 4.491872 -3.150290 1.483566 -2.449436 -7.634255 1.333446 -0.492602 8.146725 7.898549 4.028147 -4.768758 -0.431037 2.619098 0.000000 0.000000 0.000000 -7.643835 -1.270927 3.062790 -57.426245 -2.313524 4.749821 -4.122501 -4.398117 -0.006838 0.753942 4.779597 0.034403 -0.077038 0.047851 0.000000 0.000000 0.000000 0.000000 0.000000 0.000000 0.000000 19.469771 8.308231 -1.053473 81.579516 30.552906 29.849796 1.890782 33.829432 0.005953 3.304515 12.416221 0.370825 -0.036281 -0.233220 0.000000 0.000000 0.000000 0.000000 0.000000 0.000000 0.000000 
-4.391123 16.114188 0.227532 -8.153241 78.142393 20.045568 -9.331021 1.140052 4.916060 -3.251600 1.424978 -2.345496 -7.674346 1.275039 -0.487841 7.939084 8.443326 4.402137 -4.820789 -0.434525 2.689275 0.000000 0.000000 0.000000 -7.718476 -1.761876 3.057324 -57.215909 -2.959371 5.219880 -4.125443 -3.106020 -0.007655 0.700989 5.460881 0.036701 -0.075470 0.055333 0.000000 0.000000 0.000000 0.000000 0.000000 0.000000 0.000000 19.520169 8.508056 -1.092952 82.195525 29.972790 26.447168 1.944902 30.475585 0.005261 3.316336 12.595230 0.376913 -0.035531 -0.219809 0.000000 0.000000 0.000000 0.000000 0.000000 0.000000 0.000000 
-4.255159 16.121899 0.217765 -7.015168 78.338984 21.273417 -9.594233 1.113181 5.343235 -3.331237 1.393290 -2.224193 -7.698172 1.246369 -0.434045 7.653251 9.020094 4.820755 -4.867711 -0.437513 2.768526 0.000000 0.000000 0.000000 -7.786650 -2.135129 3.026385 -57.085959 -3.927905 5.679505 -4.105599 -1.899128 -0.008590 0.824287 6.211815 0.048300 -0.072771 0.063954 0.000000 0.000000 0.000000 0.000000 0.000000 0.000000 0.000000 19.453162 8.719003 -1.150113 82.766537 29.514816 22.291782 2.002531 26.974077 0.004637 3.185483 12.752430 0.365903 -0.032250 -0.206180 0.000000 0.000000 0.000000 0.000000 0.000000 0.000000 0.000000 
-4.121134 16.137934 0.205002 -6.140873 78.527540 22.221962 -9.744949 1.114929 5.755803 -3.389265 1.388604 -2.090170 -7.706696 1.247140 -0.333781 7.306914 9.625360 5.270506 -4.910023 -0.439970 2.853832 0.000000 0.000000 0.000000 -7.854102 -2.385420 2.971965 -57.033214 -5.172770 6.132663 -4.063508 -0.839221 -0.009615 1.134745 6.990836 0.072801 -0.068832 0.073149 0.000000 0.000000 0.000000 0.000000 0.000000 0.000000 0.000000 19.292530 8.947300 -1.212840 83.220033 29.177759 17.399547 2.058118 23.420920 0.004155 2.871143 12.887749 0.332596 -0.026243 -0.193307 -0.000000 0.000000 0.000000 0.000000 0.000000 0.000000 0.000000 
-3.988222 16.161297 0.189356 -5.560309 78.699418 22.868114 -9.795391 1.141362 6.137900 -3.427770 1.408693 -1.946717 -7.703963 1.274898 -0.185499 6.924782 10.224818 5.726262 -4.951634 -0.441965 2.939047 0.000000 0.000000 0.000000 -7.923153 -2.500649 2.894668 -57.051849 -6.662537 6.611001 -4.001425 0.025439 -0.010687 1.627606 7.737569 0.113203 -0.063704 0.082243 0.000000 0.000000 0.000000 0.000000 0.000000 0.000000 0.000000 19.084925 9.166103 -1.270556 83.473752 28.965822 11.968382 2.103152 19.919205 0.003815 2.297392 13.013586 0.268091 -0.017133 -0.182096 -0.000000 0.000000 0.000000 0.000000 0.000000 0.000000 0.000000 
-3.855826 16.190963 0.171097 -5.280190 78.852749 23.212450 -9.762532 1.187382 6.476828 -3.449818 1.449929 -1.798720 -7.695262 1.325509 0.004636 6.536568 10.793331 6.168238 -4.995196 -0.443583 3.019712 0.000000 0.000000 0.000000 -7.993271 -2.488216 2.797261 -57.136844 -8.348431 7.119528 -3.923028 0.661538 -0.011753 2.285855 8.375982 0.169804 -0.057591 0.090512 0.000000 0.000000 0.000000 0.000000 0.000000 0.000000 0.000000 18.875330 9.359024 -1.314700 83.451986 28.825131 6.319876 2.125997 16.622215 0.003540 1.392472 13.115726 0.163085 -0.004885 -0.173088 -0.000000 0.000000 0.000000 0.000000 0.000000 0.000000 0.000000 
-3.723490 16.226037 0.150762 -5.275772 78.990313 23.287225 -9.664524 1.245263 6.763385 -3.458087 1.505460 -1.657609 -7.684383 1.390573 0.204835 6.169900 11.345169 6.601529 -5.038657 -0.444971 3.098817 0.000000 0.000000 0.000000 -8.056131 -2.450386 2.691690 -57.273605 -9.960071 7.601304 -3.834311 0.767996 -0.012848 3.089310 8.929917 0.242605 -0.050876 0.096903 0.000000 0.000000 0.000000 0.000000 0.000000 0.000000 0.000000 18.685353 9.557001 -1.332387 83.123521 28.610554 0.785455 2.116741 13.745365 0.003203 0.160940 13.113604 0.017877 0.009737 -0.166193 -0.000000 0.000000 0.000000 0.000000 0.000000 0.000000 0.000000 
